<svg width="24" height="24" xmlns="http://www.w3.org/2000/svg"><path d="M16.339 16c-1.149 1.325-2.714 1.912-4.339 1.958-1.628-.05-3.225-.474-4.38-1.797-2.228 1.033-3.428 2.028-3.6 2.986v.137c-.059.369.011.75.196 1.06.184.309.468.521.788.59 2.085.952 4.767 1.078 6.996 1.064 2.455.02 4.339-.08 6.985-1.201.32-.063.606-.271.793-.578.187-.307.26-.688.203-1.057-.172-.942-1.386-1.996-3.642-3.162zm-9.423-2.295C7.92 16.285 9.478 17 11.917 17c2.44 0 3.807-.742 4.817-3.335.085.008.752-1.617.752-3.92C17.532 5.254 15.203 3 11.917 3c-3.285 0-5.766 2.253-5.72 6.779 0 1.65.647 3.931.72 3.926z" fill="#8D8EA2" fill-rule="nonzero"/></svg>