<svg id="layer_1" data-name="layer 1" xmlns="http://www.w3.org/2000/svg" xmlns:xlink="http://www.w3.org/1999/xlink" viewBox="0 0 280 102.66"><defs><style>.cls-1{fill:url(#gradient);}.cls-2{fill:#8dcefc;}.cls-3,.cls-4{fill:none;stroke-miterlimit:10;stroke-width:2px;}.cls-3{stroke:#457ab5;}.cls-4{stroke:url(#gradient_3);}.cls-5{fill:url(#gradient_2);}.cls-6{fill:#2e7acc;}.cls-7{fill:#e33e06;}.cls-8{fill:#8c8c8c;}</style><radialGradient id="gradient" cx="49.22" cy="-6550.95" r="44.62" gradientTransform="matrix(1, 0, 0, -0.07, 0, -359.49)" gradientUnits="userSpaceOnUse"><stop offset="0" stop-color="#8c8c8c"/><stop offset="0.13" stop-color="#919191" stop-opacity="0.95"/><stop offset="0.32" stop-color="#a0a0a0" stop-opacity="0.83"/><stop offset="0.54" stop-color="#b8b8b8" stop-opacity="0.61"/><stop offset="0.78" stop-color="#dadada" stop-opacity="0.32"/><stop offset="1" stop-color="#fff" stop-opacity="0"/></radialGradient><radialGradient id="gradient_3" cx="-147.55" cy="-262.27" r="23.26" gradientTransform="matrix(0.95, -0.32, -0.32, -0.95, 121.5, -275.63)" gradientUnits="userSpaceOnUse"><stop offset="0" stop-color="#fff"/><stop offset="0.21" stop-color="#fff" stop-opacity="0.99"/><stop offset="0.34" stop-color="#fff" stop-opacity="0.96"/><stop offset="0.46" stop-color="#fff" stop-opacity="0.9"/><stop offset="0.56" stop-color="#fff" stop-opacity="0.81"/><stop offset="0.66" stop-color="#fff" stop-opacity="0.71"/><stop offset="0.74" stop-color="#fff" stop-opacity="0.58"/><stop offset="0.83" stop-color="#fff" stop-opacity="0.42"/><stop offset="0.91" stop-color="#fff" stop-opacity="0.24"/><stop offset="0.99" stop-color="#fff" stop-opacity="0.04"/><stop offset="1" stop-color="#fff" stop-opacity="0"/></radialGradient><radialGradient id="gradient_2" cx="61.19" cy="57.93" r="54.56" gradientUnits="userSpaceOnUse"><stop offset="0" stop-color="#7aacdf"/><stop offset="0.27" stop-color="#70a6dd"/><stop offset="0.73" stop-color="#5496d9"/><stop offset="1" stop-color="#408bd6"/></radialGradient></defs><title>博客园logo</title><g id="layer_2" data-name="layer 2"><g id="layer_1-2" data-name="layer 1-2"><ellipse class="cls-1" cx="49.22" cy="99.44" rx="44.62" ry="3.22"/><path class="cls-2" d="M49.22,1A48.22,48.22,0,1,0,97.44,49.22,48.22,48.22,0,0,0,49.22,1ZM34,77.06A10.46,10.46,0,1,1,44.43,66.6,10.46,10.46,0,0,1,34,77.06Zm25.11-4a6.5,6.5,0,0,1-6.5-6.5c0-9.81-8.51-18.1-18.58-18.1a6.5,6.5,0,0,1,0-13c17.12,0,31.58,14.24,31.58,31.1A6.5,6.5,0,0,1,59.08,73.1ZM79.72,67l-.56,0a6.5,6.5,0,0,1-6.47-6C71.35,45.29,59.57,28.5,40.4,28.5a6.5,6.5,0,0,1,0-13C64,15.5,83.48,34.63,85.65,60A6.51,6.51,0,0,1,79.72,67Z"/><circle class="cls-3" cx="49.22" cy="49.22" r="48.22"/><path class="cls-4" d="M35.2,5.89c23.88-7.78,50,5.36,57.41,29.05"/><path class="cls-5" d="M49.22,4.6A44.62,44.62,0,1,0,93.84,49.22,44.62,44.62,0,0,0,49.22,4.6ZM34,77.06A10.46,10.46,0,1,1,44.43,66.6,10.46,10.46,0,0,1,34,77.06Zm25.11-4a6.5,6.5,0,0,1-6.5-6.5c0-9.81-8.51-18.1-18.58-18.1a6.5,6.5,0,0,1,0-13c17.12,0,31.58,14.24,31.58,31.1A6.5,6.5,0,0,1,59.08,73.1ZM79.72,67l-.56,0a6.5,6.5,0,0,1-6.47-6C71.35,45.29,59.57,28.5,40.4,28.5a6.5,6.5,0,0,1,0-13C64,15.5,83.48,34.63,85.65,60A6.51,6.51,0,0,1,79.72,67Z"/><path class="cls-6" d="M79.72,67l-.56,0a6.5,6.5,0,0,1-6.47-6,39.24,39.24,0,0,0-4.45-15,56.64,56.64,0,0,0-37-13.58A57,57,0,0,0,5.93,38.39,44.61,44.61,0,0,0,85.62,75a51.4,51.4,0,0,0-2.86-9A6.55,6.55,0,0,1,79.72,67ZM34,77.06A10.46,10.46,0,1,1,44.43,66.6,10.46,10.46,0,0,1,34,77.06Zm25.11-4a6.5,6.5,0,0,1-6.5-6.5c0-9.81-8.51-18.1-18.58-18.1a6.5,6.5,0,0,1,0-13c17.12,0,31.58,14.24,31.58,31.1A6.5,6.5,0,0,1,59.08,73.1Z"/><path class="cls-7" d="M115.08,24.88V10.24h4.26V24.88h6.06v4.2h-6.06v36h-4.26v-36H108.6v-4.2ZM150.84,47.8v-3H155v3h7.86v3.84H155V60.4c0,3.12-1.56,4.68-4.62,4.68h-6.6l-.9-4c2.1.18,4.14.3,6.06.3,1.2,0,1.86-.66,1.86-2V51.64h-26V47.8Zm-9-33.36V10.3H146v4.14h7a34.08,34.08,0,0,0-1.74-3.6l3.72-.6a39.19,39.19,0,0,1,1.56,4.2h5.16V18.1H146v4.14h13.6V44h-4V39.82H146V43.6h-4.14V39.82H132.3V44h-4V22.24h13.56V18.1H126.18V14.44ZM142,59.38l-2.7,2.7A56.61,56.61,0,0,0,131,54.34l2.64-2.52A58.52,58.52,0,0,1,142,59.38Zm-.12-29.58V25.6H132.3v4.2Zm0,7.08V32.8H132.3v4.08ZM146,29.8h9.6V25.6H146Zm0,7.08h9.6V32.8H146Z"/><path class="cls-7" d="M192.06,20.68c-.9,1.38-1.8,2.7-2.76,4h22.14v3.48a32.73,32.73,0,0,1-10.62,9.06,74.75,74.75,0,0,0,22,4.74l-1,3.9a70,70,0,0,1-25.5-6.42c-7.08,3.24-16,5.76-26.82,7.62l-1.62-3.84c9.66-1.56,17.7-3.54,24.06-6.06A54.93,54.93,0,0,1,183.48,31a57.2,57.2,0,0,1-7.5,5.64l-2.76-3.36a44.52,44.52,0,0,0,14.64-13.5ZM219.78,26H215.4V18.52h-40V26H171V14.62h22a39.15,39.15,0,0,0-2.22-4.2l4.74-.72c.72,1.44,1.38,3.12,2.1,4.92h22.14Zm-6.72,39.36h-4.2V62.74h-25.8v2.58h-4.2V46.54h34.2Zm-4.2-6.48v-8.4h-25.8v8.4ZM206.28,28.3h-20.1l-.18.18a53.6,53.6,0,0,0,10.38,6.72A36,36,0,0,0,206.28,28.3Z"/><path class="cls-7" d="M280,65.14h-4.32v-2.4H235.2v2.4h-4.32V12.82H280Zm-4.32-6.24V16.78H235.2V58.9Zm-4.2-26.34V36.4h-9.6V48.7c0,1.44.6,2.16,1.92,2.16H266a3.05,3.05,0,0,0,1.92-.54c.72-.42,1.14-2.52,1.38-6.24l3.6,1.2c-.48,4.44-1.08,7.14-1.92,8s-2.16,1.08-4.14,1.14H262.5a4.46,4.46,0,0,1-3.42-1.32,5,5,0,0,1-1.2-3.48V36.4h-5.7c-.54,4.92-1.68,8.7-3.48,11.46-2,3.12-5.22,5.52-9.42,7.32l-2-3.48a16.49,16.49,0,0,0,8.16-6.12,22.43,22.43,0,0,0,2.88-9.18H239.4V32.56Zm-3.4-10.26v3.84H242.82V22.3Z"/><path class="cls-8" d="M123.37,79a6.18,6.18,0,0,1,5.31,2.52l-1.5,1.38a4.32,4.32,0,0,0-3.69-1.9c-3.09,0-5,2.37-5,5.58s1.92,5.61,5,5.61a4.37,4.37,0,0,0,3.69-1.89l1.5,1.38a6.18,6.18,0,0,1-5.31,2.52c-4.32,0-7.23-3.3-7.23-7.62S119.05,79,123.37,79Z"/><path class="cls-8" d="M141.61,84.36c0-2.55-1.29-3.36-3.24-3.36a5.59,5.59,0,0,0-4.29,2.25V93.84h-2.25V79.35h2.25v2.1A7.22,7.22,0,0,1,139.24,79c3,0,4.62,1.53,4.62,4.68V93.84h-2.25Z"/><path class="cls-8" d="M148.36,73.83h2.25v7.71A6,6,0,0,1,155.5,79c3.78,0,6.45,3,6.45,7.62s-2.67,7.59-6.45,7.59a6.11,6.11,0,0,1-4.89-2.52v2.16h-2.25Zm6.57,18.36c2.94,0,4.68-2.37,4.68-5.58S157.87,81,154.93,81a5.39,5.39,0,0,0-4.32,2.34v6.57a5.36,5.36,0,0,0,4.32,2.28Z"/><path class="cls-8" d="M165.61,73.83h2.25v20h-2.25Z"/><path class="cls-8" d="M171.52,86.58c0-4.2,2.76-7.59,7.17-7.59s7.17,3.39,7.17,7.59-2.76,7.62-7.17,7.62S171.52,90.78,171.52,86.58Zm12,0c0-2.94-1.71-5.58-4.8-5.58s-4.83,2.64-4.83,5.58,1.74,5.61,4.83,5.61,4.77-2.64,4.77-5.61Z"/><path class="cls-8" d="M190.63,95.88a5.53,5.53,0,0,0,4.71,2c2.4,0,4.65-1.17,4.65-4.35V91.44A6.06,6.06,0,0,1,195.13,94c-3.78,0-6.45-2.82-6.45-7.5s2.64-7.5,6.45-7.5A6,6,0,0,1,200,81.54V79.35h2.25V93.42c0,4.8-3.36,6.3-6.9,6.3a7.39,7.39,0,0,1-5.85-2.16ZM200,83.34A5.34,5.34,0,0,0,195.67,81c-2.91,0-4.65,2.31-4.65,5.52S192.76,92,195.67,92A5.36,5.36,0,0,0,200,89.67Z"/><path class="cls-8" d="M206.65,90.3a6.54,6.54,0,0,0,4.77,2.07c2.22,0,3.42-1,3.42-2.4,0-1.59-1.77-2.1-3.72-2.58-2.46-.57-5.25-1.23-5.25-4.23,0-2.25,1.95-4.17,5.4-4.17a7.36,7.36,0,0,1,5.37,2.1l-1,1.56a5.62,5.62,0,0,0-4.32-1.83c-2,0-3.21.9-3.21,2.19s1.65,1.86,3.54,2.31c2.52.57,5.43,1.29,5.43,4.5,0,2.43-2,4.38-5.7,4.38a7.71,7.71,0,0,1-5.85-2.28Z"/><path class="cls-8" d="M221.89,90.84a1.65,1.65,0,1,1-1.65,1.65h0A1.66,1.66,0,0,1,221.89,90.84Z"/><path class="cls-8" d="M233.77,79a6.18,6.18,0,0,1,5.31,2.52l-1.5,1.38a4.32,4.32,0,0,0-3.69-1.9c-3.09,0-5,2.37-5,5.58s1.92,5.61,5,5.61a4.37,4.37,0,0,0,3.69-1.89l1.5,1.38a6.18,6.18,0,0,1-5.31,2.52c-4.32,0-7.23-3.3-7.23-7.62S229.45,79,233.77,79Z"/><path class="cls-8" d="M241.39,86.58c0-4.2,2.76-7.59,7.17-7.59s7.17,3.39,7.17,7.59S253,94.2,248.56,94.2,241.39,90.78,241.39,86.58Zm12,0c0-2.94-1.71-5.58-4.8-5.58s-4.83,2.64-4.83,5.58,1.74,5.61,4.83,5.61,4.77-2.64,4.77-5.61Z"/><path class="cls-8" d="M276.88,84c0-1.83-.81-3-2.67-3a5.07,5.07,0,0,0-3.84,2.22V93.84h-2.25V84c0-1.83-.78-3-2.67-3a5.09,5.09,0,0,0-3.81,2.25V93.84h-2.25V79.35h2.25v2.1A6.25,6.25,0,0,1,266.32,79a3.72,3.72,0,0,1,3.9,2.7,6.1,6.1,0,0,1,4.86-2.7c2.64,0,4.05,1.47,4.05,4.38V93.84h-2.25Z"/></g></g></svg>