<svg viewBox="0 0 24 24" xmlns="http://www.w3.org/2000/svg">
    <path d="M6.077 3H17.92c.874 0 1.579.779 1.579 1.74v14.52c0 .961-.705 1.74-1.577 1.74H6.08c-.874 0-1.579-.779-1.579-1.74V4.74C4.5 3.78 5.205 3 6.077 3zm4.6 12.055H8.09c-.325 0-.59.383-.59.856 0 .47.264.854.59.854h2.587c.326 0 .589-.384.589-.854 0-.473-.264-.856-.589-.856zm1.882-4.44h-4.47c-.324 0-.588.383-.588.855 0 .47.263.854.589.854h4.472c.324 0 .587-.384.587-.855 0-.47-.263-.855-.59-.855zm2.353-4.438H8.089c-.324 0-.588.382-.588.855 0 .47.263.854.589.854h6.824c.323 0 .587-.384.587-.855 0-.472-.263-.855-.59-.855v.001z"
          fill="#8d8ea2"/>
</svg>